<svg xmlns="http://www.w3.org/2000/svg" width="112" height="112" viewBox="0 0 112 112"><g><g opacity=".4"><path fill="#fff" d="M7 0h98a7 7 0 0 1 7 7v73.5a7 7 0 0 1-7 7H7a7 7 0 0 1-7-7V7a7 7 0 0 1 7-7zm35 91h28v10.5s7 3.5 10.5 7S77 112 77 112H35s-7 0-3.5-3.5 10.5-7 10.5-7zM7 14v49a7 7 0 0 0 7 7h84a7 7 0 0 0 7-7V14a7 7 0 0 0-7-7H14a7 7 0 0 0-7 7z"/><path fill="#7b7b7b" d="M7 0h98a7 7 0 0 1 7 7v73.5a7 7 0 0 1-7 7H7a7 7 0 0 1-7-7V7a7 7 0 0 1 7-7zm35 91h28v10.5s7 3.5 10.5 7S77 112 77 112H35s-7 0-3.5-3.5 10.5-7 10.5-7zM7 14v49a7 7 0 0 0 7 7h84a7 7 0 0 0 7-7V14a7 7 0 0 0-7-7H14a7 7 0 0 0-7 7z"/></g></g></svg>