<svg xmlns="http://www.w3.org/2000/svg" width="117" height="117" viewBox="0 0 117 117"><g><g><path fill="#fff" d="M18.881 3.726h60.423l-11.33 11.327H22.659c-6.257 0-11.33 5.072-11.33 11.328v67.964c0 6.255 5.073 11.327 11.33 11.327h67.975c6.257 0 11.33-5.071 11.33-11.327v-45.31l11.329-11.327V98.12c0 10.427-8.454 18.88-18.882 18.88H18.88C8.454 117 0 108.546 0 98.12V22.605C0 12.179 8.454 3.726 18.881 3.726zm70.247 5.975l18.112 17.996L67.394 67.29 49.282 49.293zm20.87 15.251L91.886 6.955l5.433-5.398c2-1.988 5.143-2.089 7.018-.225l11.32 11.248c1.876 1.863 1.775 4.985-.226 6.973zM46.76 51.802l18.113 17.996-25.357 7.198z"/><path fill="#00bac6" d="M18.881 3.726h60.423l-11.33 11.327H22.659c-6.257 0-11.33 5.072-11.33 11.328v67.964c0 6.255 5.073 11.327 11.33 11.327h67.975c6.257 0 11.33-5.071 11.33-11.327v-45.31l11.329-11.327V98.12c0 10.427-8.454 18.88-18.882 18.88H18.88C8.454 117 0 108.546 0 98.12V22.605C0 12.179 8.454 3.726 18.881 3.726zm70.247 5.975l18.112 17.996L67.394 67.29 49.282 49.293zm20.87 15.251L91.886 6.955l5.433-5.398c2-1.988 5.143-2.089 7.018-.225l11.32 11.248c1.876 1.863 1.775 4.985-.226 6.973zM46.76 51.802l18.113 17.996-25.357 7.198z"/></g></g></svg>