<svg xmlns="http://www.w3.org/2000/svg" width="126" height="111" viewBox="0 0 126 111"><g><g opacity=".4"><path fill="#fff" d="M7.874 0h110.25C122.475 0 126 3.548 126 7.927v95.143c0 4.379-3.526 7.928-7.875 7.928H7.875c-4.35 0-7.876-3.55-7.876-7.928V7.928C0 3.548 3.525-.001 7.874-.001zm3.938 19.82v71.358c0 4.379 3.526 7.929 7.875 7.929h86.625c4.35 0 7.875-3.55 7.875-7.93V19.82c0-4.378-3.526-7.928-7.875-7.928H19.687c-4.35 0-7.875 3.55-7.875 7.928zm25.593 0c7.612 0 13.782 6.213 13.782 13.876 0 7.663-6.17 13.875-13.782 13.875-7.61 0-13.78-6.212-13.78-13.875s6.17-13.876 13.78-13.876zM15.75 91.178l23.625-31.714 15.75 19.821h3.938l27.563-55.5 23.625 67.393z"/><path fill="#7b7b7b" d="M7.874 0h110.25C122.475 0 126 3.548 126 7.927v95.143c0 4.379-3.526 7.928-7.875 7.928H7.875c-4.35 0-7.876-3.55-7.876-7.928V7.928C0 3.548 3.525-.001 7.874-.001zm3.938 19.82v71.358c0 4.379 3.526 7.929 7.875 7.929h86.625c4.35 0 7.875-3.55 7.875-7.93V19.82c0-4.378-3.526-7.928-7.875-7.928H19.687c-4.35 0-7.875 3.55-7.875 7.928zm25.593 0c7.612 0 13.782 6.213 13.782 13.876 0 7.663-6.17 13.875-13.782 13.875-7.61 0-13.78-6.212-13.78-13.875s6.17-13.876 13.78-13.876zM15.75 91.178l23.625-31.714 15.75 19.821h3.938l27.563-55.5 23.625 67.393z"/></g></g></svg>